<?xml version="1.0" standalone="no"?>
<!DOCTYPE svg PUBLIC "-//W3C//DTD SVG 20010904//EN"
 "http://www.w3.org/TR/2001/REC-SVG-20010904/DTD/svg10.dtd">
<svg version="1.0" xmlns="http://www.w3.org/2000/svg"
 width="200.000000pt" height="200.000000pt" viewBox="0 0 200.000000 200.000000"
 preserveAspectRatio="xMidYMid meet">

<g transform="translate(0.000000,200.000000) scale(0.100000,-0.100000)"
fill="#000000" stroke="none">
<path d="M647 1685 c-31 -32 -39 -71 -22 -111 17 -42 51 -64 98 -64 87 0 130
109 68 171 -40 39 -106 41 -144 4z"/>
<path d="M937 1682 c-62 -65 -17 -172 73 -172 33 0 48 6 71 29 65 66 20 171
-73 171 -35 0 -50 -6 -71 -28z"/>
<path d="M937 1412 c-35 -37 -36 -92 -2 -147 31 -51 31 -71 -1 -119 -15 -22
-26 -52 -26 -71 0 -18 12 -53 26 -77 32 -56 32 -74 1 -120 -55 -82 -15 -178
75 -178 89 0 129 92 75 172 -14 20 -25 50 -25 66 0 15 11 43 25 62 16 21 25
47 25 70 0 21 -10 50 -25 72 -32 48 -32 92 0 123 34 35 98 34 145 0 75 -55
170 -14 170 75 0 89 -95 130 -176 75 -46 -32 -88 -32 -139 0 -57 35 -113 34
-148 -3z"/>
<path d="M646 1144 c-39 -40 -39 -94 0 -152 29 -42 27 -75 -7 -124 -14 -19
-22 -45 -22 -71 0 -100 142 -136 188 -47 22 42 19 81 -10 120 -15 20 -25 47
-25 66 0 19 11 49 25 70 15 22 25 51 25 71 0 83 -114 126 -174 67z"/>
<path d="M630 585 c0 -8 7 -15 15 -15 8 0 15 7 15 15 0 8 -7 15 -15 15 -8 0
-15 -7 -15 -15z"/>
<path d="M697 584 c-4 -4 -7 -33 -7 -65 0 -68 21 -101 65 -101 28 -1 55 23 55
49 0 20 -20 15 -40 -9 -15 -19 -20 -20 -34 -9 -9 7 -16 26 -16 42 0 28 2 29
45 29 33 0 45 4 45 14 0 10 -14 16 -42 18 -29 2 -43 8 -43 17 0 16 -18 25 -28
15z"/>
<path d="M630 485 c0 -51 3 -65 15 -65 12 0 15 14 15 65 0 51 -3 65 -15 65
-12 0 -15 -14 -15 -65z"/>
<path d="M923 533 c-21 -4 -23 -10 -21 -61 1 -47 2 -50 5 -17 5 46 18 65 44
65 19 0 25 -14 32 -75 2 -17 5 -8 6 22 1 42 -3 54 -18 63 -11 5 -21 9 -23 9
-2 -1 -13 -4 -25 -6z"/>
<path d="M1040 520 c-22 -22 -26 -51 -10 -81 13 -23 72 -26 90 -4 15 18 7 19
-20 3 -15 -9 -25 -10 -37 -2 -34 21 -26 34 21 34 39 0 46 3 46 19 0 20 -35 51
-57 51 -7 0 -22 -9 -33 -20z m68 -17 c2 -9 -8 -13 -32 -13 -34 0 -44 8 -29 24
11 11 56 2 61 -11z"/>
<path d="M1338 529 c-37 -21 -16 -59 33 -59 12 0 19 -7 19 -20 0 -15 -7 -20
-24 -20 -14 0 -28 5 -31 10 -3 6 -11 10 -17 10 -16 0 9 -27 30 -32 10 -3 28
-1 41 3 35 13 24 50 -19 64 -19 7 -35 16 -34 21 1 14 34 17 50 3 21 -17 28 -5
9 15 -19 18 -33 20 -57 5z"/>
<path d="M1150 523 c1 -23 28 -97 38 -101 6 -2 14 13 18 32 9 50 19 52 33 6 6
-22 16 -40 21 -40 5 0 16 23 25 52 18 61 17 58 6 58 -5 0 -12 -16 -15 -35 -10
-49 -23 -52 -31 -5 -8 50 -32 53 -41 5 -9 -48 -22 -53 -30 -10 -5 31 -24 60
-24 38z"/>
<path d="M920 350 c0 -5 5 -10 10 -10 6 0 10 5 10 10 0 6 -4 10 -10 10 -5 0
-10 -4 -10 -10z"/>
<path d="M1001 323 c1 -21 3 -30 6 -21 2 9 12 19 21 21 15 4 15 5 0 6 -26 2
-22 19 5 24 19 4 18 4 -5 6 -26 1 -28 -2 -27 -36z"/>
<path d="M1090 323 c0 -25 3 -33 9 -24 5 7 6 22 4 32 -4 14 0 19 16 19 20 0
30 -25 12 -32 -5 -1 -3 -8 4 -15 11 -10 13 -6 12 20 -2 27 -6 32 -29 35 -26 3
-28 1 -28 -35z"/>
<path d="M1255 349 c-4 -6 -4 -13 -1 -16 3 -4 6 -1 6 6 0 9 9 12 25 9 13 -3
22 -1 19 3 -7 13 -42 11 -49 -2z"/>
<path d="M1377 347 c-4 -10 -3 -16 2 -13 5 3 12 -6 15 -20 4 -15 9 -24 12 -21
3 2 -1 20 -9 38 -11 27 -14 30 -20 16z"/>
<path d="M906 315 c-9 -26 -7 -32 5 -12 6 10 9 21 6 23 -2 3 -7 -2 -11 -11z"/>
<path d="M940 316 c0 -8 4 -17 9 -20 5 -4 7 3 4 14 -6 23 -13 26 -13 6z"/>
<path d="M1356 303 c-6 -14 -5 -15 5 -6 7 7 10 15 7 18 -3 3 -9 -2 -12 -12z"/>
<path d="M1262 294 c10 -10 20 -16 22 -13 3 3 -5 11 -17 18 -21 13 -21 12 -5
-5z"/>
</g>
</svg>
